<?xml version="1.0" standalone="no"?>
<!DOCTYPE svg PUBLIC "-//W3C//DTD SVG 20010904//EN"
 "http://www.w3.org/TR/2001/REC-SVG-20010904/DTD/svg10.dtd">
<svg version="1.0" xmlns="http://www.w3.org/2000/svg"
 width="500.000000pt" height="500.000000pt" viewBox="0 0 500.000000 500.000000"
 preserveAspectRatio="xMidYMid meet">

<g transform="translate(0.000000,500.000000) scale(0.100000,-0.100000)"
fill="#000000" stroke="none">
<path d="M2604 3752 c-13 -9 -46 -59 -327 -509 l-227 -361 1 -64 c0 -35 4
-100 8 -146 9 -92 27 -122 72 -122 36 0 260 86 280 108 13 14 180 278 498 787
38 61 51 92 47 108 -4 15 -51 51 -154 115 -141 88 -173 101 -198 84z m284
-171 c23 -14 42 -30 42 -35 0 -12 -80 -146 -87 -146 -3 0 -74 43 -159 96 -100
62 -152 100 -147 107 37 62 78 123 86 129 6 3 58 -23 116 -59 58 -37 125 -78
149 -92z m-350 -30 c10 -6 -38 -90 -195 -340 -196 -312 -208 -329 -216 -301
-7 27 10 58 179 327 103 164 191 304 197 311 11 14 17 15 35 3z m96 -60 c5 -7
-383 -638 -411 -670 -2 -3 -10 2 -18 10 -12 12 14 58 192 342 114 180 212 327
219 327 7 0 15 -4 18 -9z m85 -50 c17 -11 25 4 -217 -381 -164 -260 -207 -315
-214 -275 -1 11 403 664 412 664 3 1 11 -3 19 -8z m97 -65 c3 -9 -77 -147
-190 -327 -170 -271 -199 -313 -221 -314 -14 0 -24 3 -23 7 11 32 406 647 416
648 7 0 15 -7 18 -14z m-581 -599 c89 -56 134 -78 150 -75 17 4 22 1 18 -9 -7
-17 -40 -34 -128 -68 l-67 -25 -28 30 c-16 17 -42 33 -59 36 -17 4 -31 7 -31
8 -14 95 -17 183 -8 200 11 20 11 20 18 1 4 -11 65 -55 135 -98z"/>
<path d="M1797 2662 l-27 -28 347 -284 c190 -157 354 -291 364 -298 16 -11 55
17 356 264 186 152 348 286 361 299 l24 22 -25 28 -24 28 -32 -56 c-47 -83
-114 -137 -228 -186 -198 -86 -358 -202 -398 -291 l-18 -41 -30 56 c-50 93
-183 187 -387 275 -117 51 -190 111 -232 194 l-24 47 -27 -29z"/>
<path d="M1691 2564 c-12 -15 -21 -36 -19 -46 2 -11 155 -144 348 -303 l345
-283 32 37 c18 20 32 39 33 42 0 10 -687 573 -704 577 -7 2 -23 -9 -35 -24z"/>
<path d="M3118 2473 c-456 -374 -553 -456 -556 -464 -2 -5 1 -9 7 -9 6 0 21
-16 34 -35 l24 -35 324 266 c336 276 379 313 379 325 0 11 -51 69 -61 69 -4 0
-73 -53 -151 -117z"/>
<path d="M2460 1957 c-60 -31 -32 -136 38 -137 31 0 72 43 72 75 0 30 -41 75
-67 75 -10 0 -29 -6 -43 -13z"/>
<path d="M1639 1595 c-21 -47 -39 -88 -39 -90 0 -15 40 -2 45 15 5 16 15 20
50 20 35 0 45 -4 50 -20 5 -16 45 -30 45 -16 0 2 -18 43 -40 90 -25 56 -45 86
-55 86 -11 0 -30 -30 -56 -85z m76 -2 c5 -20 3 -23 -19 -23 -30 0 -29 0 -16
36 11 29 23 24 35 -13z"/>
<path d="M1817 1673 c-3 -7 -2 -113 2 -158 0 -8 8 -15 16 -15 12 0 15 17 15
90 0 72 -3 90 -14 90 -8 0 -16 -3 -19 -7z"/>
<path d="M1999 1674 c-1 -5 -2 -46 -3 -91 -1 -73 1 -83 17 -83 12 0 17 8 17
25 0 22 4 25 34 25 64 0 104 66 64 106 -17 17 -127 32 -129 18z m78 -30 c48
-13 34 -64 -18 -64 -25 0 -29 4 -29 28 0 41 7 47 47 36z"/>
<path d="M2200 1652 c-63 -63 -22 -152 71 -152 41 0 89 48 89 89 0 44 -36 81
-87 88 -37 5 -45 2 -73 -25z m98 -18 c41 -28 18 -104 -31 -104 -53 0 -77 75
-35 104 12 9 27 16 33 16 6 0 21 -7 33 -16z"/>
<path d="M2385 1659 c41 -130 53 -154 73 -157 17 -3 23 6 38 52 10 31 21 56
24 56 3 0 14 -25 24 -56 15 -46 21 -55 38 -52 16 2 27 19 44 70 38 114 37 108
16 108 -14 0 -23 -14 -37 -60 -10 -33 -22 -57 -25 -53 -4 4 -15 32 -25 61 -24
73 -46 71 -70 -8 -10 -33 -22 -57 -25 -53 -4 4 -15 32 -25 61 -13 40 -21 52
-36 52 -16 0 -19 -4 -14 -21z"/>
<path d="M2690 1590 l0 -90 65 0 c51 0 65 3 65 15 0 11 -12 15 -45 15 -41 0
-45 2 -45 25 0 23 4 25 40 25 22 0 40 5 40 10 0 6 -18 10 -40 10 -36 0 -40 3
-40 25 0 23 4 25 45 25 33 0 45 4 45 15 0 12 -14 15 -65 15 l-65 0 0 -90z"/>
<path d="M2860 1591 c0 -84 1 -91 20 -91 15 0 20 7 20 25 0 18 5 25 20 25 11
0 27 -11 36 -25 9 -14 25 -25 36 -25 19 0 20 1 4 25 -15 23 -15 28 -1 47 37
54 6 96 -79 105 l-56 6 0 -92z m91 49 c39 -21 18 -60 -32 -60 -15 0 -19 7 -19
35 0 37 14 44 51 25z"/>
<path d="M3049 1605 c-1 -41 -2 -81 -3 -87 -1 -9 20 -14 67 -16 55 -2 67 0 67
13 0 11 -12 15 -51 15 -47 0 -50 2 -47 23 2 18 10 23 46 25 23 2 42 7 42 12 0
5 -19 10 -42 12 -35 2 -43 7 -43 23 0 17 8 20 48 23 71 5 55 26 -21 30 l-62 3
-1 -76z"/>
<path d="M3218 1658 c-3 -13 -4 -45 -3 -73 4 -95 -2 -88 67 -83 51 4 65 9 85
32 58 68 2 146 -106 146 -32 0 -40 -4 -43 -22z m119 -29 c7 -6 13 -24 13 -40
0 -33 -32 -59 -72 -59 -27 0 -28 2 -28 53 0 30 3 57 7 61 10 10 62 -1 80 -15z"/>
<path d="M1890 1575 c0 -10 11 -15 35 -15 24 0 35 5 35 15 0 10 -11 15 -35 15
-24 0 -35 -5 -35 -15z"/>
<path d="M2022 1318 l1 -53 6 45 6 44 37 -44 38 -45 -2 55 c-1 54 -1 54 -7 13
l-6 -42 -29 40 c-17 21 -33 39 -38 39 -4 0 -7 -24 -6 -52z"/>
<path d="M2152 1358 c-33 -33 -3 -89 45 -87 10 0 3 5 -14 10 -27 8 -33 15 -33
37 0 16 5 33 12 40 7 7 10 12 7 12 -3 0 -10 -5 -17 -12z"/>
<path d="M2221 1353 c7 -12 15 -20 18 -17 3 2 -3 12 -13 22 -17 16 -18 16 -5
-5z"/>
<path d="M2291 1318 c1 -55 5 -50 11 15 2 20 0 37 -4 37 -4 0 -7 -24 -7 -52z"/>
<path d="M2361 1323 l-1 -53 38 2 c36 1 36 1 5 5 -43 6 -47 40 -5 46 l27 4
-27 2 c-19 1 -28 7 -31 24 -2 12 -5 -2 -6 -30z"/>
<path d="M2523 1320 c0 -30 2 -43 4 -27 2 15 2 39 0 55 -2 15 -4 2 -4 -28z"/>
<path d="M2614 1358 c-4 -6 -3 -8 3 -5 6 4 15 -5 21 -18 11 -23 9 -25 -13 -25
-19 0 -23 4 -18 18 10 27 -3 11 -21 -28 -11 -23 -12 -29 -3 -17 16 19 77 24
77 5 0 -6 3 -9 6 -6 5 6 -32 88 -41 88 -2 0 -7 -5 -11 -12z"/>
<path d="M2733 1340 c-18 -16 -33 -35 -33 -42 0 -7 5 -5 11 5 10 18 13 17 42
-10 28 -24 29 -25 9 -2 -26 30 -27 37 -5 61 24 27 12 21 -24 -12z"/>
<path d="M2801 1323 l-1 -53 43 2 42 1 -37 4 c-29 3 -38 9 -38 23 0 14 9 20
33 23 l32 4 -32 1 c-24 2 -33 7 -36 25 -2 12 -5 -2 -6 -30z"/>
<path d="M2903 1320 c0 -30 1 -47 4 -38 2 9 12 19 21 21 16 4 16 5 0 6 -11 1
-18 12 -21 34 -2 18 -4 8 -4 -23z"/>
<path d="M2967 1350 c3 -11 0 -26 -6 -33 -8 -10 -7 -19 5 -33 14 -18 15 -18 5
3 -7 14 -8 24 -1 28 12 8 13 42 1 49 -5 4 -7 -3 -4 -14z"/>
<path d="M2226 1293 c-6 -14 -5 -15 5 -6 7 7 10 15 7 18 -3 3 -9 -2 -12 -12z"/>
</g>
</svg>
