<?xml version="1.0" encoding="UTF-8"?>
<svg version="1.1" xmlns="http://www.w3.org/2000/svg" width="500" height="500">
<path d="M0 0 C3.6948332 0.26927697 5.44985872 1.11527087 8.58203125 3.05078125 C9.608125 3.68242187 10.63421875 4.3140625 11.69140625 4.96484375 C12.8842253 5.72248197 14.07692371 6.48031014 15.26953125 7.23828125 C16.75387458 8.16281126 18.23825136 9.08728757 19.72265625 10.01171875 C21.26014578 10.98143988 22.79661038 11.952788 24.33203125 12.92578125 C25.07042236 13.38895752 25.80881348 13.85213379 26.56958008 14.3293457 C33.83492097 19.00562609 33.83492097 19.00562609 35.26953125 22.23828125 C34.05846868 25.974437 32.22591933 29.08619763 30.09375 32.3671875 C29.47032715 33.33027832 28.8469043 34.29336914 28.20458984 35.28564453 C27.56602051 36.26001465 26.92745117 37.23438477 26.26953125 38.23828125 C25.68123535 39.13659668 25.09293945 40.03491211 24.48681641 40.96044922 C23.30271282 42.76337421 22.11730539 44.56544349 20.93066406 46.36669922 C14.92771666 55.4884521 9.11950185 64.687609 3.55688477 74.08398438 C-0.10100032 80.24541435 -3.92318994 86.27990553 -7.85498047 92.26977539 C-9.9691882 95.4951588 -12.04735308 98.7283981 -14.01953125 102.04296875 C-14.3743457 102.63730713 -14.72916016 103.23164551 -15.09472656 103.84399414 C-16.0309935 105.42501882 -16.95547067 107.01300922 -17.87890625 108.6015625 C-21.99284627 114.46002139 -27.24575799 116.48415035 -33.73046875 118.86328125 C-35.31381324 119.4596058 -36.89714687 120.05595918 -38.48046875 120.65234375 C-39.21982666 120.9258667 -39.95918457 121.19938965 -40.72094727 121.48120117 C-42.37196627 122.10321671 -44.00532843 122.77190354 -45.6328125 123.453125 C-48.47526162 124.51705847 -49.90465287 124.32513351 -52.73046875 123.23828125 C-56.24056196 119.61140121 -57.2177213 117.24727953 -57.35546875 112.23828125 C-57.60537761 106.43776512 -58.4301766 100.98723528 -59.62109375 95.30859375 C-59.87032232 88.31239187 -55.07891184 82.33735408 -51.41796875 76.67578125 C-50.89452881 75.8564209 -50.37108887 75.03706055 -49.83178711 74.19287109 C-48.71193241 72.4405288 -47.5898823 70.68958787 -46.46582031 68.93994141 C-43.56356283 64.42159852 -40.67804589 59.89260701 -37.79296875 55.36328125 C-37.21184326 54.45151123 -36.63071777 53.53974121 -36.03198242 52.6003418 C-31.88906541 46.08906199 -27.79289142 39.55006783 -23.73046875 32.98828125 C-23.21492432 32.15570801 -22.69937988 31.32313477 -22.16821289 30.46533203 C-19.62235081 26.34140833 -17.10687101 22.20183528 -14.625 18.0390625 C-12.31582307 14.18039548 -9.92461711 10.40898376 -7.41796875 6.67578125 C-6.40283203 5.15791016 -6.40283203 5.15791016 -5.3671875 3.609375 C-3.06004185 0.26704228 -3.06004185 0.26704228 0 0 Z M-2.16796875 7.30078125 C-5.03637813 10.58895786 -6.22164208 13.18827282 -7.73046875 17.23828125 C-3.95331926 21.3495632 -0.05648569 24.09190518 4.76953125 26.86328125 C5.42050781 27.24484375 6.07148438 27.62640625 6.7421875 28.01953125 C8.00622466 28.76007827 9.27250164 29.49681877 10.54125977 30.22924805 C12.06920889 31.12132514 13.5755333 32.05021855 15.078125 32.984375 C17.77347787 34.52663574 19.21356326 34.78678832 22.26953125 34.23828125 C25.10611209 31.96901657 27.02563737 29.65898941 28.26953125 26.23828125 C28.61853127 23.76460536 28.61853127 23.76460536 28.26953125 21.23828125 C26.90771746 19.66831784 26.90771746 19.66831784 24.83203125 18.55078125 C24.02765625 18.05964844 23.22328125 17.56851563 22.39453125 17.0625 C21.36328125 16.46050781 20.33203125 15.85851562 19.26953125 15.23828125 C17.83127826 14.37103921 16.39384075 13.50244395 14.95703125 12.6328125 C13.41625471 11.70815057 11.87458034 10.78498312 10.33203125 9.86328125 C9.57414307 9.40993408 8.81625488 8.95658691 8.03540039 8.48950195 C7.31989014 8.06886475 6.60437988 7.64822754 5.8671875 7.21484375 C5.22273682 6.83408691 4.57828613 6.45333008 3.91430664 6.06103516 C0.9346689 4.57055287 0.42564242 5.10618718 -2.16796875 7.30078125 Z M-53.73046875 93.23828125 C-56.00005385 97.77745144 -55.07729073 103.51580758 -53.73046875 108.23828125 C-50.73160949 111.09729733 -47.5176787 112.63397703 -43.73046875 114.23828125 C-43.40046875 114.56828125 -43.07046875 114.89828125 -42.73046875 115.23828125 C-37.12233147 115.19105483 -32.59995631 114.11003033 -27.73046875 111.23828125 C-27.73046875 109.91828125 -27.73046875 108.59828125 -27.73046875 107.23828125 C-29.44260546 105.60451491 -29.44260546 105.60451491 -31.78125 104.29296875 C-32.62494141 103.77347656 -33.46863281 103.25398438 -34.33789062 102.71875 C-35.23056641 102.18894531 -36.12324219 101.65914062 -37.04296875 101.11328125 C-37.92404297 100.57574219 -38.80511719 100.03820312 -39.71289062 99.484375 C-41.35311265 98.48402666 -42.99705769 97.48974059 -44.64575195 96.50341797 C-46.36773671 95.45840977 -48.05449687 94.35559584 -49.73046875 93.23828125 C-51.05046875 93.23828125 -52.37046875 93.23828125 -53.73046875 93.23828125 Z " fill="#F5FEF9" transform="translate(262.73046875,187.76171875)"/>
</svg>
